<svg width="1299" height="1643" viewBox="0 0 1299 1643" fill="none" xmlns="http://www.w3.org/2000/svg">
<path d="M104.376 666.852C80.2072 519.184 74.8365 368.83 89.1584 220.266C96.3195 144.194 109.746 65.4378 150.922 1C310.255 108.395 436.469 265.014 508.079 444.006C511.659 452.956 515.24 461.906 522.401 468.17C534.038 478.015 550.149 476.225 565.368 474.435C662.041 461.906 767.666 453.851 849.123 507.549C853.598 510.234 858.074 513.814 863.445 513.814C874.187 515.604 883.137 505.759 890.298 496.809C991.449 373.304 1140.04 290.073 1297.58 265.909C1264.46 431.477 1231.34 597.046 1180.32 758.139C1169.58 791.252 1158.84 825.261 1152.57 859.269C1135.56 965.77 1174.05 1078.53 1140.93 1180.56C1123.03 1236.05 1086.33 1282.59 1063.95 1336.28C1044.26 1384.61 1036.2 1438.31 1008.46 1483.06C983.392 1523.33 926.999 1535.86 885.824 1560.02C849.123 1581.5 810.632 1602.98 770.351 1615.51C744.392 1623.57 718.435 1628.94 691.58 1634.31C669.202 1638.78 645.928 1643.26 623.55 1641.47C602.067 1640.57 580.584 1635.2 559.101 1631.62C540.303 1628.94 520.611 1627.15 502.707 1621.78C484.805 1616.41 467.798 1607.46 451.685 1598.51C414.986 1578.82 378.286 1559.13 342.481 1539.44C332.633 1534.07 321.892 1528.7 312.94 1519.75C303.094 1510.8 295.933 1498.27 284.296 1492.01C247.596 1472.32 202.84 1466.95 166.14 1449.05C151.818 1441.89 138.39 1434.73 126.754 1423.99C116.012 1414.15 107.956 1401.62 99.005 1389.09C86.4731 1370.29 73.9413 1352.39 65.8851 1331.81C56.0387 1307.65 51.563 1281.69 41.7166 1257.53C35.4508 1241.42 27.3946 1226.2 21.1287 1210.99C11.2823 1188.62 3.22611 1164.45 1.43585 1139.39C-0.354408 1114.33 3.22611 1089.27 14.8628 1066.9C45.2972 1008.73 -3.03979 935.341 7.70175 870.903C12.1774 845.844 21.1287 821.681 30.0799 797.517C34.5556 784.988 39.9264 771.563 44.402 759.033C48.8777 748.293 52.4582 736.659 58.7241 726.814C73.0462 702.651 96.3195 683.857 101.69 656.112" stroke="white" stroke-opacity="0.25" stroke-miterlimit="10"/>
<path d="M106.167 463.696C102.586 444.901 100.796 425.212 99.0056 406.418C98.1105 392.994 96.3203 379.569 95.4251 366.145C94.5299 351.825 92.7397 337.506 92.7397 323.187C92.7397 299.023 98.1105 275.754 102.586 252.484C111.537 205.052 121.384 157.619 140.181 112.871C144.657 102.131 150.028 91.3914 158.085 82.4417C166.14 73.492 177.777 67.2279 189.414 67.2279C192.994 67.2279 196.575 67.2279 199.26 69.0178C203.736 71.7021 205.525 77.0719 207.316 81.546C233.275 152.249 272.66 218.476 320.998 276.649C334.424 292.758 349.642 308.867 358.592 326.766C373.811 355.405 376.496 388.519 390.818 418.053C394.398 425.212 398.874 432.372 399.769 439.532C400.664 447.586 397.979 456.536 390.818 459.221C385.447 461.906 379.181 460.116 372.915 458.326C341.585 449.376 311.152 440.427 279.821 432.372C261.024 427.002 241.331 421.632 221.638 423.422C201.946 425.212 181.357 435.952 175.092 454.746C165.246 480.7 184.042 512.024 170.616 536.188C160.77 553.191 139.287 564.827 130.335 543.347C120.489 518.288 111.537 491.439 106.167 463.696Z" stroke="white" stroke-opacity="0.25" stroke-miterlimit="10"/>
<path d="M1223.29 382.254C1229.55 361.67 1235.82 338.401 1224.18 320.502C1223.29 318.712 1221.5 316.922 1219.71 316.027C1215.23 314.237 1210.76 316.922 1207.17 319.607C1171.37 346.456 1139.15 377.779 1098.86 397.469C1071.11 410.893 1038 419.843 1018.3 444.006C998.61 468.171 995.924 503.969 1007.56 533.503C1018.3 563.037 1040.68 587.2 1064.85 606.889C1082.75 621.209 1102.45 637.318 1123.03 648.058C1148.1 661.482 1148.99 633.738 1154.36 614.945C1167.79 564.827 1182.11 514.708 1197.33 464.591C1205.39 437.742 1214.34 409.998 1223.29 382.254Z" stroke="white" stroke-opacity="0.25" stroke-miterlimit="10"/>
<path d="M576.109 526.343C620.866 503.074 672.784 479.805 720.226 496.809C731.863 501.284 742.604 507.548 754.241 511.128C786.465 521.868 827.642 512.918 848.229 538.873C858.971 552.297 859.866 571.091 865.236 587.2C879.558 628.369 923.421 649.848 960.12 672.221C995.926 694.596 1028.15 721.445 1060.37 748.293C1073.8 759.033 1087.23 770.668 1097.07 784.092C1106.92 797.517 1113.19 813.626 1117.66 829.736C1139.15 900.438 1137.36 978.299 1111.4 1047.21C1092.6 1096.43 1063.06 1141.18 1042.47 1189.51C1006.67 1277.22 1005.77 1375.66 975.337 1465.16C924.315 1485.74 870.608 1502.75 819.585 1523.33C808.844 1519.75 797.207 1515.28 786.465 1511.7C769.457 1505.43 751.555 1499.17 739.024 1486.64C722.911 1470.53 712.169 1445.47 690.686 1440.1C674.575 1436.52 658.462 1445.47 644.14 1453.52C608.335 1473.21 568.948 1485.74 529.563 1492.9C510.765 1495.59 491.967 1497.38 473.17 1494.69C452.582 1491.11 433.784 1481.27 416.777 1469.63C363.965 1434.73 322.789 1384.61 282.508 1336.28C264.605 1313.91 245.807 1292.43 227.905 1270.06C203.737 1240.52 179.568 1210.99 155.4 1181.46C141.972 1165.35 128.545 1149.24 120.489 1129.55C110.643 1107.17 108.853 1082.11 107.958 1057.95C103.482 986.353 98.111 914.757 93.6354 843.16C90.9499 810.047 90.0549 772.458 111.538 747.399C135.706 718.76 177.778 716.076 210.898 699.07C260.129 674.907 289.669 620.314 339.796 598.835C359.489 590.78 380.077 588.096 401.559 584.516C463.323 574.67 519.717 555.877 576.109 526.343Z" stroke="white" stroke-opacity="0.25" stroke-miterlimit="10"/>
<path d="M474.96 741.133C423.938 760.823 373.81 782.302 323.683 805.571C330.844 806.467 331.739 816.311 331.739 823.47C332.635 855.689 351.431 887.908 379.181 904.912C406.93 921.916 443.63 922.811 473.169 907.597C483.911 902.228 493.757 894.172 500.919 883.433C518.82 855.689 508.08 818.101 495.548 787.672C490.176 774.248 484.806 759.928 474.065 750.083C451.686 729.499 415.881 735.765 389.027 749.189C366.649 759.928 345.166 777.828 343.376 801.991C341.585 823.47 355.907 842.264 366.649 861.059C377.39 878.063 386.342 897.752 404.244 906.702C412.301 911.176 421.252 912.967 430.203 912.967C466.008 914.757 504.498 892.382 510.765 857.479C512.555 844.95 511.659 832.42 508.08 820.786C499.128 785.882 474.96 752.768 440.945 741.133C406.93 729.499 363.068 744.713 350.537 778.722C341.585 802.887 348.746 830.63 360.383 853.899C365.753 865.533 372.914 876.273 383.657 884.328C391.712 890.592 401.559 895.068 411.405 896.858C437.364 903.122 466.008 898.648 488.387 884.328C510.765 870.009 528.667 847.634 534.933 821.68C537.618 810.941 538.514 800.201 534.933 790.357C532.248 782.302 526.877 775.142 520.611 768.878C500.919 747.399 473.169 732.185 443.63 730.395C414.091 727.709 383.657 739.345 364.859 760.823C357.698 768.878 351.431 779.618 349.642 790.357C346.955 801.991 348.746 813.626 351.431 825.26C356.803 847.634 368.439 869.113 385.447 884.328C403.349 899.542 427.518 907.597 449.897 904.018C482.121 897.752 505.394 870.009 519.716 840.474" stroke="white" stroke-opacity="0.25" stroke-miterlimit="10"/>
<path d="M1030.83 871.799C994.134 900.438 959.223 930.866 926.104 963.085C936.845 963.085 942.216 975.614 947.586 984.564C959.223 1005.15 986.078 1014.99 1008.46 1007.83C1032.62 1000.67 1047.84 975.614 1050.53 950.555C1053.21 925.496 1044.26 900.438 1031.73 878.959C1023.67 865.534 1014.72 853.004 1002.19 844.054C996.819 840.474 991.449 837.79 985.182 838.684C979.812 838.684 974.441 841.37 969.965 844.054C949.377 857.48 935.951 880.749 932.37 905.808C928.79 930.866 935.055 955.925 946.692 977.404C953.853 990.829 964.595 1005.15 979.812 1008.73C995.028 1013.2 1012.04 1006.04 1022.78 994.409C1033.52 982.774 1038.89 966.664 1040.68 951.451C1043.37 933.551 1042.47 913.862 1033.52 897.752C1024.57 881.643 1007.56 870.009 988.763 870.903C965.49 872.693 948.482 895.963 946.692 919.232C944.901 942.501 955.643 964.874 967.28 984.564C971.756 991.724 976.23 998.883 983.391 1003.36C990.552 1007.83 999.504 1010.52 1006.67 1007.83C1015.62 1005.15 1020.99 996.198 1024.57 987.249C1037.99 957.715 1041.58 924.602 1034.41 892.383C1030.83 878.063 1023.67 861.954 1009.35 857.479C1003.09 855.69 995.924 856.584 989.658 858.374C964.595 865.534 947.586 891.488 944.901 917.442C942.216 943.395 952.062 969.35 967.28 989.934C974.441 999.778 983.391 1008.73 995.028 1009.62C1003.09 1009.62 1011.14 1006.04 1018.3 1000.67C1037.99 985.459 1048.74 961.295 1051.42 936.235C1054.11 912.072 1049.63 887.013 1041.58 863.744C1039.79 858.374 1037.1 852.11 1033.52 847.634C1026.36 838.684 1013.83 834.21 1002.19 835.105C990.553 836 979.812 841.37 969.965 848.53C944.901 866.429 928.79 895.068 928.79 925.496C928.79 955.925 946.692 986.354 975.336 997.989C1003.09 1009.62 1038.89 1000.67 1055.9 974.72C1068.43 955.03 1069.32 929.971 1061.27 908.492C1054.11 887.013 1038.89 868.219 1021.88 852.11C1016.51 846.74 1009.35 841.37 1002.19 840.474C993.239 839.58 986.078 845.844 979.812 852.11C941.321 891.488 929.684 954.135 952.062 1004.25" stroke="white" stroke-opacity="0.25" stroke-miterlimit="10"/>
<path d="M752.449 1236.05C754.24 1244.1 757.82 1253.05 765.875 1253.95C773.036 1254.84 779.303 1248.58 783.779 1242.31C800.786 1219.04 817.793 1195.77 834.801 1172.51C839.277 1166.24 844.647 1159.08 843.752 1151.03C843.752 1149.24 842.858 1147.45 841.962 1145.66C840.172 1143.87 838.382 1142.97 835.697 1142.97C824.06 1139.39 811.528 1135.81 798.995 1136.71C790.045 1137.6 781.093 1140.29 772.142 1137.6C764.981 1135.81 758.716 1130.44 750.659 1127.76C738.127 1124.18 730.966 1128.65 730.071 1141.18C729.176 1155.5 736.337 1169.82 739.918 1183.25C744.394 1200.25 747.973 1218.15 752.449 1236.05Z" stroke="white" stroke-opacity="0.25" stroke-miterlimit="10"/>
</svg>
