<svg width="41" height="51" viewBox="0 0 41 51" fill="none" xmlns="http://www.w3.org/2000/svg">
<path d="M4.03564 21.0694C3.30718 16.6185 3.1453 12.0867 3.57698 7.60887C3.79282 5.31599 4.19752 2.94221 5.43858 1C10.241 4.23698 14.0452 8.95762 16.2036 14.3526C16.3115 14.6224 16.4195 14.8921 16.6353 15.0809C16.9861 15.3777 17.4717 15.3237 17.9304 15.2698C20.8442 14.8921 24.0278 14.6493 26.483 16.2678C26.6179 16.3488 26.7528 16.4567 26.9147 16.4567C27.2384 16.5106 27.5082 16.2139 27.7241 15.9441C30.7728 12.2216 35.2515 9.71292 40 8.9846C39.0017 13.975 38.0035 18.9654 36.4656 23.8208C36.1418 24.8189 35.8181 25.844 35.6292 26.869C35.1166 30.079 36.2767 33.4779 35.2785 36.5531C34.7389 38.2255 33.6327 39.6282 32.9582 41.2467C32.3646 42.7033 32.1218 44.3218 31.2854 45.6706C30.53 46.8845 28.8303 47.2621 27.5892 47.9904C26.483 48.6378 25.3228 49.2852 24.1087 49.6629C23.3263 49.9057 22.5439 50.0675 21.7345 50.2293C21.06 50.3642 20.3585 50.4991 19.684 50.4451C19.0365 50.4182 18.389 50.2563 17.7415 50.1484C17.1749 50.0675 16.5813 50.0136 16.0417 49.8517C15.5021 49.6899 14.9895 49.4201 14.5039 49.1504C13.3977 48.5569 12.2915 47.9635 11.2123 47.37C10.9155 47.2082 10.5918 47.0463 10.322 46.7766C10.0252 46.5068 9.80935 46.1291 9.45861 45.9403C8.35244 45.3469 7.00343 45.185 5.89726 44.6455C5.46558 44.4297 5.06087 44.2139 4.71014 43.8902C4.38638 43.5935 4.14356 43.2159 3.87376 42.8382C3.49604 42.2717 3.11832 41.7323 2.8755 41.1118C2.57872 40.3835 2.44382 39.6012 2.14704 38.8729C1.95818 38.3873 1.71536 37.9288 1.5265 37.4702C1.22972 36.7958 0.986897 36.0675 0.932937 35.3122C0.878977 34.5569 0.986897 33.8016 1.33764 33.1272C2.25496 31.3738 0.798037 29.1619 1.1218 27.2197C1.2567 26.4644 1.5265 25.7361 1.7963 25.0078C1.9312 24.6301 2.09308 24.2255 2.22798 23.8478C2.36288 23.5241 2.4708 23.1734 2.65966 22.8767C3.09134 22.1484 3.79282 21.5819 3.9547 20.7457" stroke="white" stroke-width="0.5" stroke-miterlimit="10"/>
<path d="M4.08964 14.9461C3.98172 14.3796 3.92776 13.7861 3.8738 13.2197C3.84681 12.815 3.79286 12.4104 3.76588 12.0058C3.73889 11.5742 3.68494 11.1426 3.68494 10.711C3.68494 9.98266 3.84681 9.28131 3.98172 8.57996C4.25151 7.15029 4.5483 5.72063 5.11487 4.37187C5.24978 4.04817 5.41165 3.72446 5.65449 3.45471C5.8973 3.18496 6.24804 2.99615 6.59879 2.99615C6.70669 2.99615 6.81463 2.99616 6.89556 3.05011C7.03047 3.13101 7.0844 3.29286 7.13837 3.42772C7.92079 5.55878 9.1079 7.55491 10.5648 9.30828C10.9695 9.79383 11.4282 10.2794 11.698 10.8189C12.1567 11.6821 12.2376 12.6802 12.6693 13.5703C12.7772 13.7861 12.9121 14.0019 12.9391 14.2177C12.9661 14.4605 12.8851 14.7303 12.6693 14.8112C12.5074 14.8921 12.3185 14.8382 12.1297 14.7842C11.1854 14.5145 10.2681 14.2447 9.32374 14.0019C8.75719 13.8401 8.1636 13.6782 7.57005 13.7322C6.9765 13.7861 6.35594 14.1098 6.16711 14.6763C5.87033 15.4586 6.43688 16.4027 6.0322 17.131C5.73543 17.6435 5.08791 17.9942 4.8181 17.3468C4.52132 16.5915 4.25151 15.7823 4.08964 14.9461Z" stroke="white" stroke-width="0.5" stroke-miterlimit="10"/>
<path d="M37.7607 12.4913C37.9495 11.8709 38.1384 11.1696 37.7876 10.6301C37.7607 10.5761 37.7067 10.5222 37.6527 10.4952C37.5179 10.4412 37.383 10.5222 37.275 10.6031C36.1958 11.4123 35.2246 12.3565 34.0104 12.9499C33.1741 13.3545 32.1758 13.6243 31.5822 14.3526C30.9887 15.0809 30.9078 16.1599 31.2585 17.0501C31.5822 17.9403 32.2568 18.6686 32.9852 19.2621C33.5248 19.6937 34.1184 20.1792 34.7389 20.5029C35.4944 20.9075 35.5213 20.0713 35.6832 19.5048C36.0879 17.9942 36.5196 16.4836 36.9782 14.973C37.2211 14.1638 37.4909 13.3276 37.7607 12.4913Z" stroke="white" stroke-width="0.5" stroke-miterlimit="10"/>
<path d="M18.2541 16.8343C19.6031 16.133 21.168 15.4316 22.5979 15.9441C22.9487 16.079 23.2724 16.2678 23.6232 16.3757C24.5944 16.6994 25.8355 16.4297 26.4561 17.212C26.7798 17.6166 26.8068 18.183 26.9687 18.6686C27.4004 19.9095 28.7224 20.5569 29.8286 21.2312C30.9078 21.9056 31.879 22.7149 32.8503 23.5241C33.255 23.8478 33.6597 24.1985 33.9565 24.6031C34.2533 25.0078 34.4421 25.4933 34.5771 25.9789C35.2246 28.1099 35.1706 30.4567 34.3882 32.5338C33.8216 34.0174 32.9313 35.3661 32.3107 36.8228C31.2315 39.4663 31.2045 42.4336 30.2872 45.1311C28.7494 45.7515 27.1306 46.264 25.5927 46.8844C25.269 46.7765 24.9182 46.6417 24.5944 46.5338C24.0818 46.3449 23.5422 46.1561 23.1645 45.7785C22.6789 45.2929 22.3551 44.5376 21.7076 44.3758C21.222 44.2679 20.7363 44.5376 20.3046 44.7804C19.2254 45.3739 18.0383 45.7515 16.8512 45.9673C16.2846 46.0482 15.718 46.1022 15.1514 46.0212C14.5309 45.9133 13.9643 45.6166 13.4517 45.266C11.8599 44.2139 10.6188 42.7034 9.40471 41.2467C8.86509 40.5723 8.2985 39.9249 7.75892 39.2505C7.03047 38.3604 6.30201 37.4702 5.57355 36.58C5.16884 36.0945 4.76414 35.6089 4.52132 35.0154C4.22454 34.3411 4.17058 33.5858 4.1436 32.8575C4.0087 30.6995 3.84682 28.5415 3.71192 26.3835C3.63098 25.3854 3.604 24.2524 4.25152 23.4971C4.97996 22.6339 6.24804 22.553 7.24631 22.0405C8.73018 21.3122 9.62055 19.6667 11.1314 19.0193C11.725 18.7765 12.3455 18.6956 12.993 18.5877C14.8546 18.291 16.5544 17.7245 18.2541 16.8343Z" stroke="white" stroke-width="0.5" stroke-miterlimit="10"/>
<path d="M15.2054 23.3083C13.6675 23.9017 12.1566 24.5491 10.6458 25.2505C10.8616 25.2775 10.8886 25.5742 10.8886 25.79C10.9156 26.7611 11.4821 27.7322 12.3185 28.2447C13.1549 28.7572 14.2611 28.7842 15.1514 28.3257C15.4752 28.1638 15.7719 27.921 15.9878 27.5973C16.5274 26.7611 16.2036 25.6281 15.8259 24.711C15.664 24.3064 15.5021 23.8748 15.1784 23.578C14.5039 22.9576 13.4247 23.1465 12.6153 23.5511C11.9408 23.8748 11.2933 24.4143 11.2393 25.1426C11.1853 25.79 11.617 26.3564 11.9408 26.9229C12.2645 27.4355 12.5343 28.0289 13.0739 28.2987C13.3168 28.4335 13.5866 28.4875 13.8564 28.4875C14.9356 28.5415 16.0957 27.8671 16.2846 26.815C16.3385 26.4374 16.3115 26.0597 16.2036 25.7091C15.9338 24.657 15.2054 23.659 14.1801 23.3083C13.1549 22.9576 11.8329 23.4162 11.4551 24.4412C11.1853 25.1696 11.4012 26.0058 11.7519 26.7071C11.9138 27.0578 12.1296 27.3815 12.4534 27.6243C12.6962 27.8131 12.993 27.948 13.2898 28.002C14.0722 28.1908 14.9356 28.0559 15.6101 27.6243C16.2846 27.1927 16.8241 26.5183 17.013 25.736C17.094 25.4123 17.121 25.0886 17.013 24.7919C16.9321 24.5491 16.7702 24.3333 16.5813 24.1445C15.9878 23.4971 15.1514 23.0386 14.2611 22.9846C13.3707 22.9037 12.4534 23.2544 11.8868 23.9017C11.671 24.1445 11.4821 24.4682 11.4282 24.7919C11.3472 25.1426 11.4012 25.4933 11.4821 25.8439C11.644 26.5183 11.9947 27.1657 12.5074 27.6243C13.047 28.0829 13.7754 28.3257 14.4499 28.2178C15.4212 28.0289 16.1227 27.1927 16.5544 26.3025" stroke="white" stroke-width="0.5" stroke-miterlimit="10"/>
<path d="M31.9599 27.2467C30.8538 28.1099 29.8015 29.027 28.8033 29.9981C29.1271 29.9981 29.2889 30.3757 29.4508 30.6455C29.8015 31.2659 30.611 31.5626 31.2855 31.3468C32.0139 31.131 32.4726 30.3757 32.5535 29.6204C32.6345 28.8651 32.3647 28.1099 31.9869 27.4625C31.7441 27.0578 31.4743 26.6802 31.0966 26.4104C30.9347 26.3025 30.7728 26.2216 30.584 26.2486C30.4221 26.2486 30.2602 26.3295 30.1253 26.4104C29.5048 26.8151 29.1001 27.5164 28.9922 28.2717C28.8843 29.027 29.0731 29.7823 29.4238 30.4297C29.6397 30.8343 29.9635 31.2659 30.4221 31.3738C30.8807 31.5087 31.3934 31.2929 31.7171 30.9422C32.0409 30.5915 32.2028 30.106 32.2567 29.6474C32.3377 29.1079 32.3107 28.5145 32.0409 28.0289C31.7711 27.5434 31.2585 27.1927 30.6919 27.2197C29.9904 27.2736 29.4778 27.975 29.4238 28.6763C29.3699 29.3777 29.6936 30.052 30.0444 30.6455C30.1793 30.8613 30.3142 31.0771 30.53 31.2119C30.7458 31.3468 31.0156 31.4277 31.2315 31.3468C31.5013 31.2659 31.6632 30.9961 31.7711 30.7264C32.1758 29.8362 32.2837 28.8382 32.0679 27.8671C31.9599 27.4355 31.7441 26.9499 31.3124 26.8151C31.1236 26.7611 30.9077 26.7881 30.7189 26.842C29.9634 27.0578 29.4508 27.8401 29.3699 28.6224C29.2889 29.4046 29.5857 30.1869 30.0444 30.8073C30.2602 31.104 30.53 31.3738 30.8807 31.4008C31.1236 31.4008 31.3664 31.2929 31.5822 31.131C32.1758 30.6725 32.4996 29.9441 32.5805 29.1888C32.6614 28.4605 32.5265 27.7052 32.2837 27.0039C32.2298 26.842 32.1488 26.6532 32.0409 26.5183C31.825 26.2486 31.4473 26.1137 31.0966 26.1407C30.7458 26.1676 30.4221 26.3295 30.1253 26.5453C29.3699 27.0848 28.8842 27.948 28.8842 28.8651C28.8842 29.7823 29.4238 30.6994 30.2872 31.0501C31.1236 31.4008 32.2028 31.131 32.7154 30.3488C33.0931 29.7553 33.1201 29 32.8773 28.3526C32.6614 27.7052 32.2028 27.1388 31.6902 26.6532C31.5283 26.4913 31.3124 26.3295 31.0966 26.3025C30.8268 26.2755 30.611 26.4644 30.4221 26.6532C29.262 27.8401 28.9112 29.7283 29.5857 31.2389" stroke="white" stroke-width="0.5" stroke-miterlimit="10"/>
<path d="M23.5691 38.2255C23.6231 38.4682 23.731 38.738 23.9738 38.765C24.1897 38.7919 24.3785 38.6031 24.5134 38.4143C25.0261 37.7129 25.5387 37.0116 26.0513 36.3102C26.1862 36.1214 26.3481 35.9056 26.3211 35.6628C26.3211 35.6089 26.2941 35.5549 26.2671 35.501C26.2132 35.447 26.1592 35.4201 26.0783 35.4201C25.7275 35.3122 25.3498 35.2043 24.9721 35.2312C24.7023 35.2582 24.4325 35.3391 24.1627 35.2582C23.9468 35.2043 23.758 35.0424 23.5152 34.9615C23.1375 34.8536 22.9216 34.9885 22.8947 35.3661C22.8676 35.7977 23.0835 36.2293 23.1914 36.6339C23.3263 37.1464 23.4342 37.6859 23.5691 38.2255Z" stroke="white" stroke-width="0.5" stroke-miterlimit="10"/>
</svg>
