<svg width="966" height="963" viewBox="0 0 966 963" fill="none" xmlns="http://www.w3.org/2000/svg">
<path d="M78.396 236.042C60.4579 126.401 56.4717 14.7654 67.1016 -95.5407C72.4166 -152.023 82.3822 -210.498 112.943 -258.342C231.202 -178.603 324.879 -62.316 378.029 70.583C380.686 77.228 383.344 83.8729 388.659 88.5244C397.296 95.8338 409.254 94.5048 420.549 93.1758C492.301 83.8729 570.697 77.8925 631.155 117.762C634.477 119.756 637.799 122.414 641.785 122.414C649.758 123.743 656.401 116.433 661.716 109.788C736.791 18.0879 847.077 -43.7101 964.007 -61.6515C939.425 61.2801 914.843 184.212 876.974 303.821C869.001 328.407 861.029 353.658 856.378 378.909C843.755 457.984 872.323 541.71 847.741 617.463C834.454 658.661 807.214 693.215 790.605 733.085C775.989 768.967 770.009 808.837 749.414 842.062C730.811 871.964 688.956 881.267 658.395 899.208C631.155 915.156 602.587 931.104 572.69 940.407C553.423 946.388 534.157 950.375 514.225 954.361C497.616 957.684 480.342 961.006 463.733 959.677C447.788 959.013 431.843 955.026 415.898 952.368C401.946 950.375 387.33 949.046 374.042 945.059C360.755 941.072 348.132 934.427 336.173 927.782C308.934 913.163 281.695 898.544 255.12 883.925C247.811 879.938 239.839 875.951 233.195 869.306C225.887 862.661 220.572 853.358 211.935 848.707C184.696 834.088 151.477 830.101 124.238 816.811C113.608 811.495 103.642 806.179 95.0054 798.205C87.0329 790.896 81.0535 781.593 74.4098 772.29C65.1085 758.335 55.8073 745.046 49.8279 729.762C42.5198 711.821 39.1979 692.55 31.8898 674.609C27.2392 662.648 21.2598 651.352 16.6092 640.055C9.30109 623.443 3.32172 605.502 1.99297 586.896C0.664222 568.29 3.32172 549.684 11.9586 533.072C34.5473 489.879 -1.3289 435.391 6.64359 387.547C9.96546 368.941 16.6092 351 23.2529 333.059C26.5748 323.756 30.5611 313.788 33.8829 304.485C37.2048 296.511 39.8623 287.873 44.5129 280.563C55.1429 262.622 72.4166 248.668 76.4029 228.068" stroke="#E4CEFF" stroke-width="0.5" stroke-miterlimit="10"/>
<path d="M79.7249 85.2019C77.0674 71.2475 75.7387 56.6286 74.4099 42.6742C73.7455 32.7068 72.4168 22.7393 71.7524 12.7719C71.088 2.14 69.7593 -8.49192 69.7593 -19.1238C69.7593 -37.0652 73.7455 -54.3421 77.0674 -71.619C83.7111 -106.837 91.0193 -142.055 104.971 -175.28C108.293 -183.254 112.279 -191.228 118.259 -197.873C124.238 -204.518 132.875 -209.169 141.512 -209.169C144.169 -209.169 146.827 -209.169 148.82 -207.84C152.142 -205.847 153.47 -201.86 154.799 -198.538C174.066 -146.042 203.298 -96.8698 239.175 -53.6776C249.14 -41.7167 260.435 -29.7558 267.078 -16.4659C278.373 4.79797 280.366 29.3843 290.996 51.3126C293.653 56.6286 296.975 61.9446 297.64 67.2605C298.304 73.241 296.311 79.8859 290.996 81.8794C287.01 83.8729 282.359 82.5439 277.708 81.2149C254.455 74.57 231.867 67.925 208.613 61.9445C194.662 57.9576 180.045 53.9706 165.429 55.2996C150.813 56.6286 135.532 64.6025 130.882 78.5569C123.574 97.8273 137.525 121.085 127.56 139.026C120.252 151.651 104.307 160.29 97.663 144.342C90.3549 125.736 83.7111 105.801 79.7249 85.2019Z" stroke="#E4CEFF" stroke-width="0.5" stroke-miterlimit="10"/>
<path d="M908.864 24.7329C913.515 9.44955 918.165 -7.82733 909.528 -21.1172C908.864 -22.4462 907.535 -23.7752 906.206 -24.4397C902.885 -25.7687 899.563 -23.7752 896.905 -21.7817C870.33 -1.84687 846.413 21.4105 816.516 36.0294C795.92 45.9968 771.339 52.6418 756.722 70.5831C742.106 88.5245 740.113 115.104 748.75 137.033C756.722 158.961 773.332 176.902 791.27 191.521C804.557 202.153 819.174 214.114 834.454 222.088C853.057 232.055 853.721 211.456 857.707 197.502C867.673 160.29 878.303 123.078 889.597 85.8665C895.577 65.9317 902.22 45.3323 908.864 24.7329Z" stroke="#E4CEFF" stroke-width="0.5" stroke-miterlimit="10"/>
<path d="M428.521 131.717C461.74 114.44 500.274 97.1629 535.486 109.788C544.123 113.111 552.095 117.762 560.732 120.42C584.649 128.394 615.211 121.749 630.491 141.02C638.464 150.987 639.128 164.941 643.114 176.902C653.744 207.469 686.299 223.417 713.538 240.029C740.113 256.642 764.03 276.577 787.948 296.511C797.913 304.485 807.879 313.124 815.187 323.091C822.495 333.059 827.146 345.02 830.468 356.981C846.413 409.476 845.084 467.287 825.817 518.453C811.865 555 789.941 588.225 774.66 624.108C748.085 689.228 747.421 762.323 724.832 828.772C686.963 844.055 647.101 856.681 609.231 871.964C601.259 869.306 592.622 865.984 584.649 863.326C572.026 858.674 558.739 854.023 549.438 844.72C537.479 832.759 529.506 814.153 513.561 810.166C501.603 807.508 489.644 814.153 479.014 820.134C452.439 834.753 423.206 844.055 393.974 849.371C380.022 851.365 366.07 852.694 352.118 850.7C336.838 848.042 322.886 840.733 310.263 832.095C271.065 806.179 240.504 768.968 210.607 733.085C197.319 716.472 183.367 700.524 170.08 683.912C152.142 661.984 134.204 640.055 116.266 618.127C106.3 606.166 96.3344 594.205 90.355 579.586C83.0469 562.974 81.7181 544.368 81.0538 526.427C77.7319 473.267 73.7456 420.108 70.4238 366.948C68.4306 342.362 67.7663 314.453 83.7113 295.847C101.649 274.583 132.875 272.59 157.457 259.964C193.997 242.023 215.922 201.489 253.127 185.541C267.743 179.56 283.024 177.567 298.968 174.909C344.81 167.599 386.666 153.645 428.521 131.717Z" stroke="#E4CEFF" stroke-width="0.5" stroke-miterlimit="10"/>
<path d="M353.447 291.195C315.578 305.814 278.373 321.762 241.168 339.039C246.483 339.704 247.147 347.013 247.147 352.329C247.812 376.251 261.763 400.173 282.359 412.798C302.955 425.423 330.194 426.088 352.118 414.792C360.091 410.805 367.399 404.824 372.714 396.85C386.001 376.251 378.029 348.342 368.728 325.749C364.741 315.782 360.755 305.15 352.783 297.84C336.173 282.557 309.598 287.209 289.667 297.176C273.058 305.15 257.113 318.44 255.784 336.381C254.455 352.329 265.085 366.283 273.058 380.238C281.03 392.863 287.674 407.482 300.961 414.127C306.941 417.449 313.585 418.779 320.228 418.779C346.803 420.108 375.371 403.495 380.022 377.58C381.351 368.277 380.686 358.974 378.029 350.336C371.385 324.42 353.447 299.834 328.201 291.195C302.955 282.557 270.4 293.853 261.099 319.104C254.455 337.046 259.77 357.645 268.407 374.922C272.393 383.56 277.708 391.534 285.681 397.515C291.66 402.166 298.968 405.489 306.276 406.818C325.543 411.469 346.803 408.147 363.413 397.515C380.022 386.883 393.309 370.27 397.96 351C399.953 343.026 400.618 335.052 397.96 327.743C395.967 321.762 391.981 316.446 387.33 311.795C372.714 295.847 352.118 284.551 330.194 283.222C308.27 281.228 285.681 289.867 271.729 305.814C266.414 311.795 261.763 319.769 260.435 327.743C258.441 336.381 259.77 345.02 261.763 353.658C265.75 370.27 274.386 386.218 287.01 397.515C300.297 408.811 318.235 414.792 334.845 412.134C358.762 407.482 376.036 386.883 386.666 364.954" stroke="#E4CEFF" stroke-width="0.5" stroke-miterlimit="10"/>
<path d="M766.023 388.212C738.784 409.476 712.873 432.068 688.292 455.99C696.264 455.99 700.25 465.293 704.236 471.938C712.873 487.221 732.805 494.531 749.414 489.215C767.352 483.899 778.646 465.293 780.64 446.687C782.633 428.081 775.989 409.476 766.688 393.528C760.708 383.56 754.065 374.257 744.763 367.612C740.777 364.954 736.791 362.961 732.14 363.625C728.154 363.625 724.168 365.619 720.846 367.612C705.565 377.58 695.6 394.857 692.942 413.463C690.285 432.068 694.935 450.674 703.572 466.622C708.887 476.59 716.86 487.221 728.154 489.879C739.448 493.202 752.071 487.886 760.044 479.248C768.016 470.609 772.003 458.648 773.331 447.352C775.325 434.062 774.66 419.443 768.016 407.482C761.373 395.521 748.75 386.883 734.798 387.547C717.524 388.876 704.901 406.153 703.572 423.43C702.243 440.707 710.216 457.319 718.853 471.938C722.175 477.254 725.496 482.57 730.811 485.892C736.126 489.215 742.77 491.208 748.085 489.215C754.729 487.221 758.715 480.576 761.373 473.932C771.338 452.003 773.996 427.417 768.681 403.495C766.023 392.863 760.708 380.902 750.078 377.58C745.428 376.251 740.113 376.915 735.462 378.244C716.86 383.56 704.236 402.831 702.243 422.101C700.25 441.371 707.558 460.642 718.853 475.925C724.168 483.234 730.811 489.879 739.448 490.544C745.428 490.544 751.407 487.886 756.722 483.899C771.338 472.603 779.311 454.661 781.304 436.055C783.297 418.114 779.975 399.508 773.996 382.231C772.667 378.244 770.674 373.593 768.016 370.27C762.701 363.625 753.4 360.303 744.763 360.967C736.126 361.632 728.154 365.619 720.846 370.935C702.243 384.225 690.285 405.489 690.285 428.081C690.285 450.674 703.572 473.267 724.832 481.906C745.428 490.544 772.003 483.899 784.626 464.629C793.927 450.01 794.591 431.404 788.612 415.456C783.297 399.508 772.003 385.554 759.38 373.593C755.393 369.606 750.078 365.619 744.763 364.954C738.12 364.29 732.805 368.941 728.154 373.593C699.586 402.831 690.949 449.345 707.558 486.557" stroke="#E4CEFF" stroke-width="0.5" stroke-miterlimit="10"/>
<path d="M559.403 658.661C560.732 664.642 563.389 671.287 569.368 671.951C574.683 672.616 579.334 667.964 582.656 663.313C595.279 646.036 607.902 628.759 620.525 611.482C623.847 606.831 627.833 601.515 627.169 595.534C627.169 594.205 626.505 592.876 625.84 591.547C624.512 590.218 623.183 589.554 621.19 589.554C612.553 586.896 603.252 584.238 593.95 584.902C587.307 585.567 580.663 587.56 574.019 585.567C568.704 584.238 564.054 580.251 558.074 578.257C548.773 575.599 543.458 578.922 542.794 588.225C542.129 598.857 547.444 609.489 550.102 619.456C553.424 632.081 556.081 645.371 559.403 658.661Z" stroke="#E4CEFF" stroke-width="0.5" stroke-miterlimit="10"/>
</svg>
