<svg width="16" height="14" viewBox="0 0 16 14" fill="none" xmlns="http://www.w3.org/2000/svg">
<path d="M1.65 0C1.65 0 1.225 0.740625 1.225 2C1.225 2.8375 1.4125 3.3 1.55 3.525C0.587501 4.52813 0 5.87813 0 7.625C0 12.1 2.82188 13.6 8.00002 13.6C13.1781 13.6 16 12.1 16 7.625C16 5.81563 15.4438 4.45938 14.525 3.475C14.7532 2.79063 15.0157 1.49688 14.375 0C12.4656 0 10.8563 1.47188 10.8 1.525C9.90939 1.32813 8.96877 1.225 8.00002 1.225C7.00939 1.225 6.03439 1.35 5.12501 1.575C3.84688 0.303125 2.30938 0 1.65 0ZM10.575 6.4C11.0563 6.39375 11.5094 6.44375 11.9 6.575C12.9438 6.92813 13.6 7.95625 13.6 9.1C13.5969 12.2719 11.9969 12.8 7.90001 12.8C4.85313 12.8 2.375 12.2281 2.375 9.2C2.375 8.04375 2.97501 7.38125 3.40001 6.975C4.33438 6.08125 5.80626 6.525 7.90001 6.525C8.85002 6.525 9.77189 6.40938 10.575 6.4ZM4.80001 8C4.35938 8 4.00001 8.5375 4.00001 9.2C4.00001 9.8625 4.35938 10.4 4.80001 10.4C5.24063 10.4 5.60001 9.8625 5.60001 9.2C5.60001 8.5375 5.24063 8 4.80001 8ZM11.2 8C10.7594 8 10.4 8.5375 10.4 9.2C10.4 9.8625 10.7594 10.4 11.2 10.4C11.6406 10.4 12 9.8625 12 9.2C12 8.5375 11.6406 8 11.2 8Z" fill="white"/>
</svg>
