<svg width="16" height="16" viewBox="0 0 16 16" fill="none" xmlns="http://www.w3.org/2000/svg">
<path d="M0 16V0H16V16H0Z" fill="#FFD600"/>
<path d="M10.4612 11.9764C10.7688 12.476 11.103 12.9546 11.811 12.9546C12.4056 12.9546 12.7176 12.6591 12.7176 12.2502C12.7176 11.7608 12.395 11.5871 11.7407 11.3022L11.3821 11.1493C10.347 10.7102 9.65855 10.16 9.65855 8.99774C9.65855 7.92664 10.4785 7.11153 11.7599 7.11153C12.6723 7.11153 13.3278 7.42753 13.8007 8.25508L12.6834 8.9693C12.4376 8.53019 12.1718 8.3573 11.7599 8.3573C11.3394 8.3573 11.0732 8.62263 11.0732 8.9693C11.0732 9.39774 11.3399 9.57107 11.9554 9.83641L12.3141 9.9893C13.5341 10.5088 14.222 11.0395 14.222 12.2324C14.222 13.5177 13.2069 14.2222 11.8443 14.2222C10.5114 14.2222 9.75455 13.5533 9.33322 12.7253L10.4612 11.9764ZM5.31193 12.0128C5.53682 12.4155 5.87859 12.7253 6.37014 12.7253C6.84036 12.7253 7.11102 12.5395 7.11102 11.8173V7.11108H8.59234V12.0448C8.59234 13.5413 7.72435 14.2222 6.45681 14.2222C5.31149 14.2222 4.48483 13.4462 4.14795 12.7253L5.31193 12.0128Z" fill="#000001"/>
</svg>
