<svg width="14" height="14" viewBox="0 0 14 14" fill="none" xmlns="http://www.w3.org/2000/svg">
<path d="M2.10003 0C0.948877 0 6.10352e-05 0.948828 6.10352e-05 2.1V11.9C6.10352e-05 13.0512 0.948877 14 2.10003 14H11.8999C13.0511 14 13.9999 13.0512 13.9999 11.9V2.1C13.9999 0.948828 13.0511 0 11.8999 0H2.10003ZM2.10003 1.4H11.8999C12.2964 1.4 12.5999 1.70352 12.5999 2.1V11.9C12.5999 12.2965 12.2964 12.6 11.8999 12.6H2.10003C1.70355 12.6 1.40004 12.2965 1.40004 11.9V2.1C1.40004 1.70352 1.70355 1.4 2.10003 1.4ZM2.80002 2.8V4.2H8.81557L2.80002 10.2156L3.78439 11.2L9.79993 5.18437V11.2H11.1999V2.8H2.80002Z" fill="white"/>
</svg>
