<svg width="16" height="9" viewBox="0 0 16 9" fill="none" xmlns="http://www.w3.org/2000/svg">
<path d="M11.9033 2.70329L13.2305 0.404155C13.3054 0.275265 13.2601 0.111539 13.133 0.0366424C13.0058 -0.0382527 12.8404 0.00529011 12.7672 0.134181L11.4226 2.46293C10.3967 1.99439 9.24186 1.73313 7.99997 1.73313C6.75808 1.73313 5.60329 1.99439 4.57738 2.46293L3.23273 0.134181C3.15784 0.00529011 2.99411 -0.0382527 2.86522 0.0366424C2.73633 0.111539 2.69278 0.275265 2.76768 0.404155L4.09491 2.70329C1.80622 3.94343 0.25604 6.25999 0 8.97192H15.9999C15.7439 6.25999 14.1937 3.94343 11.9033 2.70329ZM4.32657 6.72504C3.95557 6.72504 3.65598 6.42372 3.65598 6.05446C3.65598 5.68346 3.95731 5.38388 4.32657 5.38388C4.69757 5.38388 4.99715 5.6852 4.99715 6.05446C4.9989 6.42372 4.69757 6.72504 4.32657 6.72504ZM11.6716 6.72504C11.3006 6.72504 11.001 6.42372 11.001 6.05446C11.001 5.68346 11.3024 5.38388 11.6716 5.38388C12.0426 5.38388 12.3422 5.6852 12.3422 6.05446C12.344 6.42372 12.0426 6.72504 11.6716 6.72504Z" fill="#32DE84"/>
</svg>
