<svg width="16" height="15" viewBox="0 0 16 15" fill="none" xmlns="http://www.w3.org/2000/svg">
<path d="M16 7.11695C16 8.17602 14.6726 9.1797 12.6376 9.80211C13.1072 11.8746 12.8985 13.5235 11.9788 14.0514C11.7668 14.1753 11.519 14.2339 11.2483 14.2339V13.5072C11.3983 13.5072 11.519 13.4779 11.6201 13.4225C12.0636 13.1683 12.256 12.2005 12.106 10.9557C12.0701 10.6494 12.0114 10.3268 11.9397 9.99763C11.3004 10.154 10.6025 10.2746 9.86873 10.3528C9.42845 10.9557 8.97187 11.5031 8.51203 11.9822C9.57521 12.9696 10.5732 13.5105 11.2515 13.5105V14.2372C10.3547 14.2372 9.1806 13.5985 7.99348 12.4905C6.80636 13.592 5.63229 14.2241 4.73543 14.2241V13.4975C5.41052 13.4975 6.41174 12.9598 7.47493 11.9789C7.01835 11.4999 6.56176 10.9557 6.12801 10.3528C5.39095 10.2746 4.69303 10.154 4.05381 9.99437C3.9788 10.3202 3.92336 10.6363 3.88422 10.9394C3.73094 12.1842 3.9201 13.152 4.36038 13.4095C4.45821 13.4681 4.58541 13.4942 4.73543 13.4942V14.2209C4.46148 14.2209 4.21362 14.1622 3.99837 14.0384C3.08194 13.5105 2.87648 11.8649 3.34937 9.79885C1.32083 9.17318 0 8.17277 0 7.11695C0 6.05788 1.32735 5.0542 3.36241 4.43179C2.89278 2.35927 3.10151 0.710374 4.0212 0.182467C4.23318 0.0586367 4.48104 -2.09808e-05 4.75499 -2.09808e-05C5.65186 -2.09808e-05 6.82593 0.638682 8.01305 1.74664C9.20016 0.6452 10.3742 0.0130148 11.2711 0.0130148C11.545 0.0130148 11.7929 0.0716705 12.0082 0.195501C12.9246 0.723409 13.13 2.36905 12.6572 4.43505C14.6792 5.05746 16 6.06114 16 7.11695ZM11.7538 9.2905C11.6331 8.87013 11.4831 8.43672 11.3135 8.00331C11.1798 8.26401 11.0395 8.5247 10.8863 8.7854C10.7362 9.04609 10.5764 9.30027 10.4166 9.54793C10.8797 9.4795 11.3265 9.39477 11.7538 9.2905ZM10.2601 5.81999C10.0057 5.38007 9.7448 4.96296 9.47411 4.57518C8.98818 4.53281 8.49572 4.51 8 4.51C7.50754 4.51 7.01508 4.53281 6.53241 4.57192C6.26172 4.9597 5.99755 5.37355 5.74317 5.81022C5.49531 6.23711 5.27028 6.67051 5.06482 7.10718C5.26702 7.54384 5.49531 7.9805 5.73991 8.40739C5.99429 8.84731 6.2552 9.26443 6.52589 9.65221C7.01182 9.69457 7.50428 9.71738 8 9.71738C8.49246 9.71738 8.98492 9.69457 9.46759 9.65547C9.73828 9.26768 10.0024 8.85383 10.2568 8.41717C10.5047 7.99028 10.7297 7.55687 10.9352 7.12021C10.7297 6.68355 10.5047 6.24688 10.2601 5.81999ZM11.3135 6.24362C11.4896 5.80696 11.6396 5.3703 11.7636 4.94667C11.3363 4.84239 10.8863 4.7544 10.4199 4.68597C10.5797 4.93689 10.7395 5.19433 10.8895 5.45828C11.0395 5.71898 11.1798 5.98293 11.3135 6.24362ZM8.00652 2.7666C7.70322 3.07944 7.39992 3.42812 7.09988 3.80938C7.3934 3.79635 7.69344 3.78657 7.99674 3.78657C8.3033 3.78657 8.6066 3.79309 8.90338 3.80938C8.60987 3.42812 8.30656 3.07944 8.00652 2.7666ZM5.58011 4.68597C5.117 4.7544 4.6702 4.83913 4.24297 4.94341C4.36364 5.36378 4.51366 5.79718 4.68324 6.23059C4.81696 5.96989 4.9572 5.7092 5.11048 5.4485C5.26376 5.18781 5.4203 4.93363 5.58011 4.68597ZM7.99022 11.4673C8.29352 11.1545 8.59682 10.8058 8.89686 10.4245C8.60334 10.4376 8.3033 10.4473 8 10.4473C7.69344 10.4473 7.39014 10.4408 7.09336 10.4245C7.38687 10.8058 7.69018 11.1545 7.99022 11.4673ZM5.57685 9.54793C5.41704 9.29701 5.25724 9.03958 5.10722 8.77562C4.9572 8.51493 4.81696 8.25423 4.68324 7.99354C4.50713 8.4302 4.35711 8.86687 4.23318 9.2905C4.66042 9.39152 5.11048 9.4795 5.57685 9.54793ZM2.62536 5.46806C1.47085 5.96012 0.724011 6.60534 0.724011 7.11695C0.724011 7.62857 1.47085 8.27704 2.62536 8.76585C2.90583 8.88642 3.21239 8.99396 3.52874 9.09497C3.71464 8.45627 3.95923 7.7915 4.26254 7.11043C3.9625 6.43263 3.72116 5.77111 3.53852 5.13567C3.21566 5.23669 2.90909 5.34748 2.62536 5.46806ZM4.37994 0.811393C3.9364 1.06557 3.74399 2.0334 3.89401 3.27822C3.92988 3.58454 3.98859 3.90715 4.06034 4.23627C4.69955 4.07986 5.39747 3.95928 6.13127 3.88108C6.57155 3.27822 7.02813 2.73076 7.48797 2.25173C6.42479 1.26435 5.42682 0.723408 4.74847 0.723408C4.60171 0.726666 4.47778 0.755995 4.37994 0.811393ZM12.1158 3.29451C12.2691 2.04969 12.0799 1.08186 11.6396 0.824428C11.5418 0.765771 11.4146 0.739701 11.2646 0.739701C10.5895 0.739701 9.58826 1.27738 8.52507 2.25825C8.98166 2.73728 9.43824 3.28148 9.87199 3.88433C10.6091 3.96254 11.307 4.08311 11.9462 4.24279C12.0212 3.91366 12.0799 3.59757 12.1158 3.29451ZM13.3714 5.46806C13.0909 5.34748 12.7843 5.23995 12.468 5.13893C12.2821 5.77763 12.0375 6.4424 11.7342 7.12347C12.0342 7.80128 12.2756 8.46279 12.4582 9.09823C12.7811 8.99721 13.0876 8.88642 13.3746 8.76585C14.5291 8.27379 15.276 7.62857 15.276 7.11695C15.2727 6.60534 14.5259 5.95686 13.3714 5.46806Z" fill="#61DAFB"/>
<path d="M7.99671 5.62776C8.81984 5.62776 9.48713 6.29451 9.48713 7.11698C9.48713 7.93945 8.81984 8.6062 7.99671 8.6062C7.17357 8.6062 6.50629 7.93945 6.50629 7.11698C6.50629 6.29451 7.17357 5.62776 7.99671 5.62776Z" fill="#61DAFB"/>
</svg>
